# Wavefront OBJ file automatically generated by Tiled4Unity

# Vertices (Count = 370)
v 0 -32 0
v -32 -32 0
v -32 0 0
v 0 0 0
v -64 -32 0
v -64 0 0
v -96 -32 0
v -96 0 0
v -128 -32 0
v -128 0 0
v -160 -32 0
v -160 0 0
v -192 -32 0
v -192 0 0
v -224 -32 0
v -224 0 0
v -256 -32 0
v -256 0 0
v -288 -32 0
v -288 0 0
v -320 -32 0
v -320 0 0
v -352 -32 0
v -352 0 0
v -384 -32 0
v -384 0 0
v -416 -32 0
v -416 0 0
v -448 -32 0
v -448 0 0
v -480 -32 0
v -480 0 0
v -512 -32 0
v -512 0 0
v -544 -32 0
v -544 0 0
v -576 -32 0
v -576 0 0
v -608 -32 0
v -608 0 0
v -640 -32 0
v -640 0 0
v -672 -32 0
v -672 0 0
v -704 -32 0
v -704 0 0
v -736 -32 0
v -736 0 0
v -768 -32 0
v -768 0 0
v -800 -32 0
v -800 0 0
v -832 -32 0
v -832 0 0
v -864 -32 0
v -864 0 0
v -896 -32 0
v -896 0 0
v -928 -32 0
v -928 0 0
v -960 -32 0
v -960 0 0
v -992 -32 0
v -992 0 0
v -1024 -32 0
v -1024 0 0
v -1056 -32 0
v -1056 0 0
v -1088 -32 0
v -1088 0 0
v -1120 -32 0
v -1120 0 0
v -1152 -32 0
v -1152 0 0
v -1184 -32 0
v -1184 0 0
v -1216 -32 0
v -1216 0 0
v -1248 -32 0
v -1248 0 0
v -1280 -32 0
v -1280 0 0
v 0 -64 0
v -32 -64 0
v -1248 -64 0
v -1280 -64 0
v 0 -96 0
v -32 -96 0
v -1248 -96 0
v -1280 -96 0
v 0 -128 0
v -32 -128 0
v -1248 -128 0
v -1280 -128 0
v 0 -160 0
v -32 -160 0
v -1248 -160 0
v -1280 -160 0
v 0 -192 0
v -32 -192 0
v -1248 -192 0
v -1280 -192 0
v 0 -224 0
v -32 -224 0
v -1248 -224 0
v -1280 -224 0
v 0 -256 0
v -32 -256 0
v -1248 -256 0
v -1280 -256 0
v 0 -288 0
v -32 -288 0
v -1248 -288 0
v -1280 -288 0
v 0 -320 0
v -32 -320 0
v -1248 -320 0
v -1280 -320 0
v 0 -352 0
v -32 -352 0
v -1248 -352 0
v -1280 -352 0
v 0 -384 0
v -32 -384 0
v -1248 -384 0
v -1280 -384 0
v 0 -416 0
v -32 -416 0
v -1248 -416 0
v -1280 -416 0
v 0 -448 0
v -32 -448 0
v -1248 -448 0
v -1280 -448 0
v 0 -480 0
v -32 -480 0
v -1248 -480 0
v -1280 -480 0
v 0 -512 0
v -32 -512 0
v -1248 -512 0
v -1280 -512 0
v 0 -544 0
v -32 -544 0
v -1248 -544 0
v -1280 -544 0
v 0 -576 0
v -32 -576 0
v -1248 -576 0
v -1280 -576 0
v 0 -608 0
v -32 -608 0
v -1248 -608 0
v -1280 -608 0
v 0 -640 0
v -32 -640 0
v -1248 -640 0
v -1280 -640 0
v 0 -672 0
v -32 -672 0
v -1248 -672 0
v -1280 -672 0
v 0 -704 0
v -32 -704 0
v -1248 -704 0
v -1280 -704 0
v 0 -736 0
v -32 -736 0
v -1248 -736 0
v -1280 -736 0
v 0 -768 0
v -32 -768 0
v -1248 -768 0
v -1280 -768 0
v 0 -800 0
v -32 -800 0
v -1248 -800 0
v -1280 -800 0
v 0 -832 0
v -32 -832 0
v -1248 -832 0
v -1280 -832 0
v 0 -864 0
v -32 -864 0
v -1248 -864 0
v -1280 -864 0
v 0 -896 0
v -32 -896 0
v -1248 -896 0
v -1280 -896 0
v 0 -928 0
v -32 -928 0
v -1248 -928 0
v -1280 -928 0
v 0 -960 0
v -32 -960 0
v -1248 -960 0
v -1280 -960 0
v 0 -992 0
v -32 -992 0
v -352 -992 0
v -384 -992 0
v -384 -960 0
v -352 -960 0
v -416 -992 0
v -416 -960 0
v -448 -992 0
v -448 -960 0
v -480 -992 0
v -480 -960 0
v -512 -992 0
v -512 -960 0
v -544 -992 0
v -544 -960 0
v -576 -992 0
v -576 -960 0
v -608 -992 0
v -608 -960 0
v -640 -992 0
v -640 -960 0
v -672 -992 0
v -672 -960 0
v -704 -992 0
v -704 -960 0
v -736 -992 0
v -736 -960 0
v -768 -992 0
v -768 -960 0
v -800 -992 0
v -800 -960 0
v -832 -992 0
v -832 -960 0
v -864 -992 0
v -864 -960 0
v -896 -992 0
v -896 -960 0
v -928 -992 0
v -928 -960 0
v -1248 -992 0
v -1280 -992 0
v 0 -1024 0
v -32 -1024 0
v -1248 -1024 0
v -1280 -1024 0
v 0 -1056 0
v -32 -1056 0
v -1248 -1056 0
v -1280 -1056 0
v 0 -1088 0
v -32 -1088 0
v -1248 -1088 0
v -1280 -1088 0
v 0 -1120 0
v -32 -1120 0
v -64 -1120 0
v -64 -1088 0
v -96 -1120 0
v -96 -1088 0
v -128 -1120 0
v -128 -1088 0
v -160 -1120 0
v -160 -1088 0
v -192 -1120 0
v -192 -1088 0
v -1088 -1120 0
v -1120 -1120 0
v -1120 -1088 0
v -1088 -1088 0
v -1152 -1120 0
v -1152 -1088 0
v -1184 -1120 0
v -1184 -1088 0
v -1216 -1120 0
v -1216 -1088 0
v -1248 -1120 0
v -1280 -1120 0
v 0 -1152 0
v -32 -1152 0
v -1248 -1152 0
v -1280 -1152 0
v 0 -1184 0
v -32 -1184 0
v -1248 -1184 0
v -1280 -1184 0
v 0 -1216 0
v -32 -1216 0
v -1248 -1216 0
v -1280 -1216 0
v 0 -1248 0
v -32 -1248 0
v -1248 -1248 0
v -1280 -1248 0
v 0 -1280 0
v -32 -1280 0
v -64 -1280 0
v -64 -1248 0
v -96 -1280 0
v -96 -1248 0
v -128 -1280 0
v -128 -1248 0
v -160 -1280 0
v -160 -1248 0
v -192 -1280 0
v -192 -1248 0
v -224 -1280 0
v -224 -1248 0
v -256 -1280 0
v -256 -1248 0
v -288 -1280 0
v -288 -1248 0
v -320 -1280 0
v -320 -1248 0
v -352 -1280 0
v -352 -1248 0
v -384 -1280 0
v -384 -1248 0
v -416 -1280 0
v -416 -1248 0
v -448 -1280 0
v -448 -1248 0
v -480 -1280 0
v -480 -1248 0
v -512 -1280 0
v -512 -1248 0
v -544 -1280 0
v -544 -1248 0
v -576 -1280 0
v -576 -1248 0
v -608 -1280 0
v -608 -1248 0
v -640 -1280 0
v -640 -1248 0
v -672 -1280 0
v -672 -1248 0
v -704 -1280 0
v -704 -1248 0
v -736 -1280 0
v -736 -1248 0
v -768 -1280 0
v -768 -1248 0
v -800 -1280 0
v -800 -1248 0
v -832 -1280 0
v -832 -1248 0
v -864 -1280 0
v -864 -1248 0
v -896 -1280 0
v -896 -1248 0
v -928 -1280 0
v -928 -1248 0
v -960 -1280 0
v -960 -1248 0
v -992 -1280 0
v -992 -1248 0
v -1024 -1280 0
v -1024 -1248 0
v -1056 -1280 0
v -1056 -1248 0
v -1088 -1280 0
v -1088 -1248 0
v -1120 -1280 0
v -1120 -1248 0
v -1152 -1280 0
v -1152 -1248 0
v -1184 -1280 0
v -1184 -1248 0
v -1216 -1280 0
v -1216 -1248 0
v -1248 -1280 0
v -1280 -1280 0

# Texture cooridinates (Count = 4)
vt 0.0001220703 0.0001220703
vt 0.1665446 0.0001220703
vt 0.1665446 0.3332112
vt 0.0001220703 0.3332112

# Normal
vn 0 0 -1

# Groups (Count = 1)

g mesh_0001
f 1/1/1 2/2/1 3/3/1 4/4/1
f 2/1/1 5/2/1 6/3/1 3/4/1
f 5/1/1 7/2/1 8/3/1 6/4/1
f 7/1/1 9/2/1 10/3/1 8/4/1
f 9/1/1 11/2/1 12/3/1 10/4/1
f 11/1/1 13/2/1 14/3/1 12/4/1
f 13/1/1 15/2/1 16/3/1 14/4/1
f 15/1/1 17/2/1 18/3/1 16/4/1
f 17/1/1 19/2/1 20/3/1 18/4/1
f 19/1/1 21/2/1 22/3/1 20/4/1
f 21/1/1 23/2/1 24/3/1 22/4/1
f 23/1/1 25/2/1 26/3/1 24/4/1
f 25/1/1 27/2/1 28/3/1 26/4/1
f 27/1/1 29/2/1 30/3/1 28/4/1
f 29/1/1 31/2/1 32/3/1 30/4/1
f 31/1/1 33/2/1 34/3/1 32/4/1
f 33/1/1 35/2/1 36/3/1 34/4/1
f 35/1/1 37/2/1 38/3/1 36/4/1
f 37/1/1 39/2/1 40/3/1 38/4/1
f 39/1/1 41/2/1 42/3/1 40/4/1
f 41/1/1 43/2/1 44/3/1 42/4/1
f 43/1/1 45/2/1 46/3/1 44/4/1
f 45/1/1 47/2/1 48/3/1 46/4/1
f 47/1/1 49/2/1 50/3/1 48/4/1
f 49/1/1 51/2/1 52/3/1 50/4/1
f 51/1/1 53/2/1 54/3/1 52/4/1
f 53/1/1 55/2/1 56/3/1 54/4/1
f 55/1/1 57/2/1 58/3/1 56/4/1
f 57/1/1 59/2/1 60/3/1 58/4/1
f 59/1/1 61/2/1 62/3/1 60/4/1
f 61/1/1 63/2/1 64/3/1 62/4/1
f 63/1/1 65/2/1 66/3/1 64/4/1
f 65/1/1 67/2/1 68/3/1 66/4/1
f 67/1/1 69/2/1 70/3/1 68/4/1
f 69/1/1 71/2/1 72/3/1 70/4/1
f 71/1/1 73/2/1 74/3/1 72/4/1
f 73/1/1 75/2/1 76/3/1 74/4/1
f 75/1/1 77/2/1 78/3/1 76/4/1
f 77/1/1 79/2/1 80/3/1 78/4/1
f 79/1/1 81/2/1 82/3/1 80/4/1
f 83/1/1 84/2/1 2/3/1 1/4/1
f 85/1/1 86/2/1 81/3/1 79/4/1
f 87/1/1 88/2/1 84/3/1 83/4/1
f 89/1/1 90/2/1 86/3/1 85/4/1
f 91/1/1 92/2/1 88/3/1 87/4/1
f 93/1/1 94/2/1 90/3/1 89/4/1
f 95/1/1 96/2/1 92/3/1 91/4/1
f 97/1/1 98/2/1 94/3/1 93/4/1
f 99/1/1 100/2/1 96/3/1 95/4/1
f 101/1/1 102/2/1 98/3/1 97/4/1
f 103/1/1 104/2/1 100/3/1 99/4/1
f 105/1/1 106/2/1 102/3/1 101/4/1
f 107/1/1 108/2/1 104/3/1 103/4/1
f 109/1/1 110/2/1 106/3/1 105/4/1
f 111/1/1 112/2/1 108/3/1 107/4/1
f 113/1/1 114/2/1 110/3/1 109/4/1
f 115/1/1 116/2/1 112/3/1 111/4/1
f 117/1/1 118/2/1 114/3/1 113/4/1
f 119/1/1 120/2/1 116/3/1 115/4/1
f 121/1/1 122/2/1 118/3/1 117/4/1
f 123/1/1 124/2/1 120/3/1 119/4/1
f 125/1/1 126/2/1 122/3/1 121/4/1
f 127/1/1 128/2/1 124/3/1 123/4/1
f 129/1/1 130/2/1 126/3/1 125/4/1
f 131/1/1 132/2/1 128/3/1 127/4/1
f 133/1/1 134/2/1 130/3/1 129/4/1
f 135/1/1 136/2/1 132/3/1 131/4/1
f 137/1/1 138/2/1 134/3/1 133/4/1
f 139/1/1 140/2/1 136/3/1 135/4/1
f 141/1/1 142/2/1 138/3/1 137/4/1
f 143/1/1 144/2/1 140/3/1 139/4/1
f 145/1/1 146/2/1 142/3/1 141/4/1
f 147/1/1 148/2/1 144/3/1 143/4/1
f 149/1/1 150/2/1 146/3/1 145/4/1
f 151/1/1 152/2/1 148/3/1 147/4/1
f 153/1/1 154/2/1 150/3/1 149/4/1
f 155/1/1 156/2/1 152/3/1 151/4/1
f 157/1/1 158/2/1 154/3/1 153/4/1
f 159/1/1 160/2/1 156/3/1 155/4/1
f 161/1/1 162/2/1 158/3/1 157/4/1
f 163/1/1 164/2/1 160/3/1 159/4/1
f 165/1/1 166/2/1 162/3/1 161/4/1
f 167/1/1 168/2/1 164/3/1 163/4/1
f 169/1/1 170/2/1 166/3/1 165/4/1
f 171/1/1 172/2/1 168/3/1 167/4/1
f 173/1/1 174/2/1 170/3/1 169/4/1
f 175/1/1 176/2/1 172/3/1 171/4/1
f 177/1/1 178/2/1 174/3/1 173/4/1
f 179/1/1 180/2/1 176/3/1 175/4/1
f 181/1/1 182/2/1 178/3/1 177/4/1
f 183/1/1 184/2/1 180/3/1 179/4/1
f 185/1/1 186/2/1 182/3/1 181/4/1
f 187/1/1 188/2/1 184/3/1 183/4/1
f 189/1/1 190/2/1 186/3/1 185/4/1
f 191/1/1 192/2/1 188/3/1 187/4/1
f 193/1/1 194/2/1 190/3/1 189/4/1
f 195/1/1 196/2/1 192/3/1 191/4/1
f 197/1/1 198/2/1 194/3/1 193/4/1
f 199/1/1 200/2/1 196/3/1 195/4/1
f 201/1/1 202/2/1 203/3/1 204/4/1
f 202/1/1 205/2/1 206/3/1 203/4/1
f 205/1/1 207/2/1 208/3/1 206/4/1
f 207/1/1 209/2/1 210/3/1 208/4/1
f 209/1/1 211/2/1 212/3/1 210/4/1
f 211/1/1 213/2/1 214/3/1 212/4/1
f 213/1/1 215/2/1 216/3/1 214/4/1
f 215/1/1 217/2/1 218/3/1 216/4/1
f 217/1/1 219/2/1 220/3/1 218/4/1
f 219/1/1 221/2/1 222/3/1 220/4/1
f 221/1/1 223/2/1 224/3/1 222/4/1
f 223/1/1 225/2/1 226/3/1 224/4/1
f 225/1/1 227/2/1 228/3/1 226/4/1
f 227/1/1 229/2/1 230/3/1 228/4/1
f 229/1/1 231/2/1 232/3/1 230/4/1
f 231/1/1 233/2/1 234/3/1 232/4/1
f 233/1/1 235/2/1 236/3/1 234/4/1
f 235/1/1 237/2/1 238/3/1 236/4/1
f 239/1/1 240/2/1 198/3/1 197/4/1
f 241/1/1 242/2/1 200/3/1 199/4/1
f 243/1/1 244/2/1 240/3/1 239/4/1
f 245/1/1 246/2/1 242/3/1 241/4/1
f 247/1/1 248/2/1 244/3/1 243/4/1
f 249/1/1 250/2/1 246/3/1 245/4/1
f 251/1/1 252/2/1 248/3/1 247/4/1
f 253/1/1 254/2/1 250/3/1 249/4/1
f 254/1/1 255/2/1 256/3/1 250/4/1
f 255/1/1 257/2/1 258/3/1 256/4/1
f 257/1/1 259/2/1 260/3/1 258/4/1
f 259/1/1 261/2/1 262/3/1 260/4/1
f 261/1/1 263/2/1 264/3/1 262/4/1
f 265/1/1 266/2/1 267/3/1 268/4/1
f 266/1/1 269/2/1 270/3/1 267/4/1
f 269/1/1 271/2/1 272/3/1 270/4/1
f 271/1/1 273/2/1 274/3/1 272/4/1
f 273/1/1 275/2/1 251/3/1 274/4/1
f 275/1/1 276/2/1 252/3/1 251/4/1
f 277/1/1 278/2/1 254/3/1 253/4/1
f 279/1/1 280/2/1 276/3/1 275/4/1
f 281/1/1 282/2/1 278/3/1 277/4/1
f 283/1/1 284/2/1 280/3/1 279/4/1
f 285/1/1 286/2/1 282/3/1 281/4/1
f 287/1/1 288/2/1 284/3/1 283/4/1
f 289/1/1 290/2/1 286/3/1 285/4/1
f 291/1/1 292/2/1 288/3/1 287/4/1
f 293/1/1 294/2/1 290/3/1 289/4/1
f 294/1/1 295/2/1 296/3/1 290/4/1
f 295/1/1 297/2/1 298/3/1 296/4/1
f 297/1/1 299/2/1 300/3/1 298/4/1
f 299/1/1 301/2/1 302/3/1 300/4/1
f 301/1/1 303/2/1 304/3/1 302/4/1
f 303/1/1 305/2/1 306/3/1 304/4/1
f 305/1/1 307/2/1 308/3/1 306/4/1
f 307/1/1 309/2/1 310/3/1 308/4/1
f 309/1/1 311/2/1 312/3/1 310/4/1
f 311/1/1 313/2/1 314/3/1 312/4/1
f 313/1/1 315/2/1 316/3/1 314/4/1
f 315/1/1 317/2/1 318/3/1 316/4/1
f 317/1/1 319/2/1 320/3/1 318/4/1
f 319/1/1 321/2/1 322/3/1 320/4/1
f 321/1/1 323/2/1 324/3/1 322/4/1
f 323/1/1 325/2/1 326/3/1 324/4/1
f 325/1/1 327/2/1 328/3/1 326/4/1
f 327/1/1 329/2/1 330/3/1 328/4/1
f 329/1/1 331/2/1 332/3/1 330/4/1
f 331/1/1 333/2/1 334/3/1 332/4/1
f 333/1/1 335/2/1 336/3/1 334/4/1
f 335/1/1 337/2/1 338/3/1 336/4/1
f 337/1/1 339/2/1 340/3/1 338/4/1
f 339/1/1 341/2/1 342/3/1 340/4/1
f 341/1/1 343/2/1 344/3/1 342/4/1
f 343/1/1 345/2/1 346/3/1 344/4/1
f 345/1/1 347/2/1 348/3/1 346/4/1
f 347/1/1 349/2/1 350/3/1 348/4/1
f 349/1/1 351/2/1 352/3/1 350/4/1
f 351/1/1 353/2/1 354/3/1 352/4/1
f 353/1/1 355/2/1 356/3/1 354/4/1
f 355/1/1 357/2/1 358/3/1 356/4/1
f 357/1/1 359/2/1 360/3/1 358/4/1
f 359/1/1 361/2/1 362/3/1 360/4/1
f 361/1/1 363/2/1 364/3/1 362/4/1
f 363/1/1 365/2/1 366/3/1 364/4/1
f 365/1/1 367/2/1 368/3/1 366/4/1
f 367/1/1 369/2/1 291/3/1 368/4/1
f 369/1/1 370/2/1 292/3/1 291/4/1

